<svg preserveAspectRatio="none" overflow="visible" style="display: block;" width="1446" height="759.711" viewBox="0 0 1446 759.711" fill="none" xmlns="http://www.w3.org/2000/svg" xmlns:xlink="http://www.w3.org/1999/xlink">
<g id="Union">
<path d="M1365.82 0C1371.71 1.99105e-05 1376.72 0.205179 1381.14 0.554576H1381.2C1391.7 1.38589 1398.79 3.02373 1405.88 4.68625L1407.28 5.01212C1416.84 7.25319 1426.88 9.38594 1446 9.38594V750.326C1426.88 750.326 1416.84 752.458 1407.28 754.699L1405.88 755.025C1398.79 756.688 1391.7 758.326 1381.2 759.157H1381.14C1376.72 759.506 1371.71 759.711 1365.82 759.711C1345.76 759.711 1335.73 757.375 1325.7 755.025C1315.8 752.676 1305.77 750.326 1285.71 750.326C1267.39 750.326 1257.49 752.277 1248.2 754.409C1247.33 754.614 1246.39 754.82 1245.52 755.025C1237.5 756.917 1229.47 758.784 1216.23 759.459C1213.02 759.627 1209.41 759.711 1205.47 759.711C1185.46 759.711 1175.43 757.375 1165.42 755.043L1165.35 755.025C1155.32 752.676 1145.28 750.326 1125.36 750.326C1107.64 750.326 1097.74 752.17 1088.78 754.23H1088.71L1085.3 755.025L1084.97 755.1C1076.19 757.123 1067.39 759.15 1052.07 759.602C1049.93 759.675 1047.59 759.711 1045.18 759.711C1025.17 759.711 1015.14 757.375 1005.14 755.043L1005.06 755.025C995.027 752.676 984.998 750.326 964.937 750.326C947.418 750.326 937.587 752.121 928.693 754.145C927.356 754.434 926.151 754.736 924.881 755.025L924.708 755.066C915.27 757.257 905.781 759.46 888.103 759.688H888.036C886.967 759.7 885.897 759.711 884.828 759.711C864.819 759.711 854.787 757.375 844.783 755.043L844.704 755.025C834.674 752.676 824.642 750.326 804.581 750.326C787.128 750.326 777.297 752.109 768.47 754.121C767.133 754.422 765.798 754.724 764.528 755.025L764.351 755.066C754.38 757.389 744.415 759.711 724.471 759.711C704.528 759.711 694.497 757.375 684.493 755.043L684.414 755.025L684.316 755.001C674.319 752.66 664.355 750.326 644.294 750.326C626.775 750.326 616.877 752.121 607.984 754.145C606.713 754.434 605.441 754.736 604.171 755.025L604.147 755.03C594.125 757.377 584.162 759.711 564.118 759.711C563.041 759.711 562.082 759.7 561.074 759.689L560.906 759.688H560.839C542.986 759.446 533.49 757.23 524.061 755.025C514.031 752.676 503.999 750.326 483.938 750.326C466.352 750.326 456.454 752.144 447.427 754.205C446.223 754.482 445.021 754.748 443.885 755.025L443.806 755.043C433.802 757.375 423.77 759.711 403.761 759.711C401.622 759.711 399.549 759.688 397.611 759.628H397.544C381.62 759.208 372.731 757.125 363.869 755.048L363.775 755.025C353.745 752.676 343.713 750.326 323.652 750.326C305.664 750.326 295.768 752.205 286.674 754.29C285.604 754.531 284.598 754.784 283.528 755.025C273.565 757.362 263.534 759.711 243.475 759.711C240.198 759.711 237.187 759.651 234.379 759.531C220.136 758.94 211.71 756.977 203.352 755.025C193.321 752.676 183.292 750.326 163.299 750.326C145.044 750.326 135.078 752.289 125.85 754.421C124.981 754.626 124.111 754.82 123.242 755.025L123.163 755.043C113.159 757.375 103.127 759.711 83.1183 759.711C78.7723 759.711 74.8276 759.602 71.3507 759.398C58.78 758.687 50.8887 756.856 43.0654 755.025C33.1018 752.676 23.0698 750.326 2.94189 750.326C1.93898 750.326 0.936053 750.325 0 750.349V9.36203C0.936054 9.38612 1.93898 9.38594 2.94189 9.38594C23.0698 9.38594 33.1018 7.03576 43.0654 4.68625C50.8887 2.85496 58.78 1.02474 71.3507 0.313911C74.8276 0.109104 78.7723 2.10226e-05 83.1183 0C103.127 0 113.159 2.33692 123.163 4.66831L123.242 4.68625C124.111 4.89108 124.981 5.08532 125.85 5.29015C135.078 7.42266 145.044 9.38594 163.299 9.38594C183.292 9.3858 193.321 7.03569 203.352 4.68625C211.71 2.73443 220.136 0.771307 234.379 0.180873C237.187 0.0603849 240.198 0 243.475 0C263.534 7.17755e-05 273.565 2.34896 283.528 4.68625C284.598 4.92722 285.604 5.18072 286.674 5.42169C295.768 7.50605 305.664 9.38594 323.652 9.38594C343.713 9.38594 353.745 7.03576 363.775 4.68625L363.869 4.66382C372.731 2.58686 381.62 0.503892 397.544 0.0837096H397.611C399.55 0.0234957 401.622 4.83017e-06 403.761 0C423.77 0 433.802 2.33688 443.806 4.66831L443.885 4.68625C445.021 4.96335 446.223 5.2298 447.427 5.5069C456.454 7.56718 466.352 9.38584 483.938 9.38594C503.999 9.38594 514.031 7.03576 524.061 4.68625C533.489 2.48142 542.986 0.264957 560.839 0.023917H560.906L561.074 0.0224222C562.082 0.0110411 563.041 0 564.118 0C584.162 0.000118925 594.125 2.33418 604.147 4.68176L604.171 4.68625C605.441 4.97542 606.713 5.27752 607.984 5.56669C616.877 7.59084 626.775 9.38594 644.294 9.38594C664.355 9.38589 674.319 7.05184 684.316 4.71016L684.414 4.68625L684.493 4.66831C694.497 2.33683 704.528 1.43676e-05 724.471 0C744.415 0 754.38 2.32201 764.351 4.64589L764.528 4.68625C765.798 4.98735 767.133 5.2895 768.47 5.59061C777.297 7.60272 787.128 9.38589 804.581 9.38594C824.642 9.38594 834.674 7.03576 844.704 4.68625L844.783 4.66831C854.787 2.33696 864.82 0 884.828 0C885.897 1.47107e-05 886.967 0.0118756 888.036 0.023917H888.103C905.781 0.251491 915.27 2.45424 924.708 4.64589L924.881 4.68625C926.151 4.97542 927.356 5.27752 928.693 5.56669C937.587 7.59082 947.418 9.38594 964.937 9.38594C984.998 9.38584 995.027 7.0357 1005.06 4.68625L1005.14 4.66831C1015.14 2.33685 1025.17 0 1045.18 0C1047.59 2.45397e-06 1049.93 0.0368313 1052.07 0.109122C1067.39 0.561343 1076.19 2.5883 1084.97 4.61151L1085.3 4.68625L1088.71 5.48149H1088.78C1097.74 7.5418 1107.64 9.3859 1125.36 9.38594C1145.28 9.38594 1155.32 7.03576 1165.35 4.68625L1165.42 4.66831C1175.43 2.33684 1185.46 0.000105008 1205.47 0C1209.41 0 1213.02 0.0839501 1216.23 0.252624C1229.47 0.927339 1237.5 2.79464 1245.52 4.68625C1246.39 4.89108 1247.33 5.09728 1248.2 5.30211C1257.49 7.43463 1267.39 9.38594 1285.71 9.38594C1305.77 9.38582 1315.8 7.03569 1325.7 4.68625C1335.73 2.33677 1345.76 0 1365.82 0Z" fill="black"/>
<path d="M1365.82 0C1371.71 1.99105e-05 1376.72 0.205179 1381.14 0.554576H1381.2C1391.7 1.38589 1398.79 3.02373 1405.88 4.68625L1407.28 5.01212C1416.84 7.25319 1426.88 9.38594 1446 9.38594V750.326C1426.88 750.326 1416.84 752.458 1407.28 754.699L1405.88 755.025C1398.79 756.688 1391.7 758.326 1381.2 759.157H1381.14C1376.72 759.506 1371.71 759.711 1365.82 759.711C1345.76 759.711 1335.73 757.375 1325.7 755.025C1315.8 752.676 1305.77 750.326 1285.71 750.326C1267.39 750.326 1257.49 752.277 1248.2 754.409C1247.33 754.614 1246.39 754.82 1245.52 755.025C1237.5 756.917 1229.47 758.784 1216.23 759.459C1213.02 759.627 1209.41 759.711 1205.47 759.711C1185.46 759.711 1175.43 757.375 1165.42 755.043L1165.35 755.025C1155.32 752.676 1145.28 750.326 1125.36 750.326C1107.64 750.326 1097.74 752.17 1088.78 754.23H1088.71L1085.3 755.025L1084.97 755.1C1076.19 757.123 1067.39 759.15 1052.07 759.602C1049.93 759.675 1047.59 759.711 1045.18 759.711C1025.17 759.711 1015.14 757.375 1005.14 755.043L1005.06 755.025C995.027 752.676 984.998 750.326 964.937 750.326C947.418 750.326 937.587 752.121 928.693 754.145C927.356 754.434 926.151 754.736 924.881 755.025L924.708 755.066C915.27 757.257 905.781 759.46 888.103 759.688H888.036C886.967 759.7 885.897 759.711 884.828 759.711C864.819 759.711 854.787 757.375 844.783 755.043L844.704 755.025C834.674 752.676 824.642 750.326 804.581 750.326C787.128 750.326 777.297 752.109 768.47 754.121C767.133 754.422 765.798 754.724 764.528 755.025L764.351 755.066C754.38 757.389 744.415 759.711 724.471 759.711C704.528 759.711 694.497 757.375 684.493 755.043L684.414 755.025L684.316 755.001C674.319 752.66 664.355 750.326 644.294 750.326C626.775 750.326 616.877 752.121 607.984 754.145C606.713 754.434 605.441 754.736 604.171 755.025L604.147 755.03C594.125 757.377 584.162 759.711 564.118 759.711C563.041 759.711 562.082 759.7 561.074 759.689L560.906 759.688H560.839C542.986 759.446 533.49 757.23 524.061 755.025C514.031 752.676 503.999 750.326 483.938 750.326C466.352 750.326 456.454 752.144 447.427 754.205C446.223 754.482 445.021 754.748 443.885 755.025L443.806 755.043C433.802 757.375 423.77 759.711 403.761 759.711C401.622 759.711 399.549 759.688 397.611 759.628H397.544C381.62 759.208 372.731 757.125 363.869 755.048L363.775 755.025C353.745 752.676 343.713 750.326 323.652 750.326C305.664 750.326 295.768 752.205 286.674 754.29C285.604 754.531 284.598 754.784 283.528 755.025C273.565 757.362 263.534 759.711 243.475 759.711C240.198 759.711 237.187 759.651 234.379 759.531C220.136 758.94 211.71 756.977 203.352 755.025C193.321 752.676 183.292 750.326 163.299 750.326C145.044 750.326 135.078 752.289 125.85 754.421C124.981 754.626 124.111 754.82 123.242 755.025L123.163 755.043C113.159 757.375 103.127 759.711 83.1183 759.711C78.7723 759.711 74.8276 759.602 71.3507 759.398C58.78 758.687 50.8887 756.856 43.0654 755.025C33.1018 752.676 23.0698 750.326 2.94189 750.326C1.93898 750.326 0.936053 750.325 0 750.349V9.36203C0.936054 9.38612 1.93898 9.38594 2.94189 9.38594C23.0698 9.38594 33.1018 7.03576 43.0654 4.68625C50.8887 2.85496 58.78 1.02474 71.3507 0.313911C74.8276 0.109104 78.7723 2.10226e-05 83.1183 0C103.127 0 113.159 2.33692 123.163 4.66831L123.242 4.68625C124.111 4.89108 124.981 5.08532 125.85 5.29015C135.078 7.42266 145.044 9.38594 163.299 9.38594C183.292 9.3858 193.321 7.03569 203.352 4.68625C211.71 2.73443 220.136 0.771307 234.379 0.180873C237.187 0.0603849 240.198 0 243.475 0C263.534 7.17755e-05 273.565 2.34896 283.528 4.68625C284.598 4.92722 285.604 5.18072 286.674 5.42169C295.768 7.50605 305.664 9.38594 323.652 9.38594C343.713 9.38594 353.745 7.03576 363.775 4.68625L363.869 4.66382C372.731 2.58686 381.62 0.503892 397.544 0.0837096H397.611C399.55 0.0234957 401.622 4.83017e-06 403.761 0C423.77 0 433.802 2.33688 443.806 4.66831L443.885 4.68625C445.021 4.96335 446.223 5.2298 447.427 5.5069C456.454 7.56718 466.352 9.38584 483.938 9.38594C503.999 9.38594 514.031 7.03576 524.061 4.68625C533.489 2.48142 542.986 0.264957 560.839 0.023917H560.906L561.074 0.0224222C562.082 0.0110411 563.041 0 564.118 0C584.162 0.000118925 594.125 2.33418 604.147 4.68176L604.171 4.68625C605.441 4.97542 606.713 5.27752 607.984 5.56669C616.877 7.59084 626.775 9.38594 644.294 9.38594C664.355 9.38589 674.319 7.05184 684.316 4.71016L684.414 4.68625L684.493 4.66831C694.497 2.33683 704.528 1.43676e-05 724.471 0C744.415 0 754.38 2.32201 764.351 4.64589L764.528 4.68625C765.798 4.98735 767.133 5.2895 768.47 5.59061C777.297 7.60272 787.128 9.38589 804.581 9.38594C824.642 9.38594 834.674 7.03576 844.704 4.68625L844.783 4.66831C854.787 2.33696 864.82 0 884.828 0C885.897 1.47107e-05 886.967 0.0118756 888.036 0.023917H888.103C905.781 0.251491 915.27 2.45424 924.708 4.64589L924.881 4.68625C926.151 4.97542 927.356 5.27752 928.693 5.56669C937.587 7.59082 947.418 9.38594 964.937 9.38594C984.998 9.38584 995.027 7.0357 1005.06 4.68625L1005.14 4.66831C1015.14 2.33685 1025.17 0 1045.18 0C1047.59 2.45397e-06 1049.93 0.0368313 1052.07 0.109122C1067.39 0.561343 1076.19 2.5883 1084.97 4.61151L1085.3 4.68625L1088.71 5.48149H1088.78C1097.74 7.5418 1107.64 9.3859 1125.36 9.38594C1145.28 9.38594 1155.32 7.03576 1165.35 4.68625L1165.42 4.66831C1175.43 2.33684 1185.46 0.000105008 1205.47 0C1209.41 0 1213.02 0.0839501 1216.23 0.252624C1229.47 0.927339 1237.5 2.79464 1245.52 4.68625C1246.39 4.89108 1247.33 5.09728 1248.2 5.30211C1257.49 7.43463 1267.39 9.38594 1285.71 9.38594C1305.77 9.38582 1315.8 7.03569 1325.7 4.68625C1335.73 2.33677 1345.76 0 1365.82 0Z"/>
</g>
</svg>
